<svg xmlns="http://www.w3.org/2000/svg" width="49" height="32" viewBox="0 0 49 32" fill="none">
  <g clip-path="url(#clip0_964_810)">
    <path d="M13.1866 0.403279C13.0699 0.283417 12.9304 0.18815 12.7763 0.1231C12.6221 0.0580501 12.4565 0.0245361 12.2892 0.0245361C12.122 0.0245361 11.9564 0.0580501 11.8022 0.1231C11.6481 0.18815 11.5086 0.283417 11.3919 0.403279C11.1526 0.648962 11.0187 0.978355 11.0187 1.3213C11.0187 1.66425 11.1526 1.99364 11.3919 2.23932L24.8057 15.9973L11.3919 29.7579C11.2711 29.8816 11.1759 30.0278 11.1117 30.1882C11.0474 30.3486 11.0154 30.5201 11.0174 30.6929C11.0195 30.8657 11.0556 31.0364 11.1236 31.1953C11.1916 31.3541 11.2902 31.498 11.4139 31.6188C11.5317 31.7339 11.671 31.8246 11.8238 31.8858C11.9767 31.947 12.1402 31.9774 12.3048 31.9754C12.4695 31.9733 12.6321 31.9388 12.7834 31.8739C12.9347 31.8089 13.0717 31.7147 13.1866 31.5967L27.451 16.9579C27.7016 16.7009 27.8418 16.3562 27.8418 15.9973C27.8418 15.6383 27.7016 15.2936 27.451 15.0366L13.1866 0.403279ZM2.17587 0.403279C2.05916 0.283417 1.91963 0.18815 1.7655 0.1231C1.61138 0.0580501 1.44578 0.0245361 1.27849 0.0245361C1.1112 0.0245361 0.945601 0.0580501 0.791475 0.1231C0.637348 0.18815 0.497818 0.283417 0.381115 0.403279C0.141842 0.648962 0.00794601 0.978355 0.00794601 1.3213C0.00794601 1.66425 0.141842 1.99364 0.381115 2.23932L13.795 15.9973L0.381115 29.7579C0.260365 29.8816 0.16515 30.0278 0.100906 30.1882C0.0366631 30.3486 0.00465012 30.5201 0.00669479 30.6929C0.00873947 30.8657 0.0448017 31.0364 0.112825 31.1953C0.180847 31.3541 0.279493 31.498 0.403133 31.6188C0.520905 31.7339 0.660217 31.8246 0.813093 31.8858C0.965969 31.947 1.12941 31.9774 1.29407 31.9754C1.45872 31.9733 1.62136 31.9388 1.77267 31.8739C1.92398 31.8089 2.06099 31.7147 2.17587 31.5967L16.4403 16.9579C16.6908 16.7009 16.831 16.3562 16.831 15.9973C16.831 15.6383 16.6908 15.2936 16.4403 15.0366L2.17587 0.403279Z" fill="#FF6A00"/>
    <path d="M33.4017 0.403279C33.285 0.283417 33.1455 0.18815 32.9913 0.1231C32.8372 0.0580501 32.6716 0.0245361 32.5043 0.0245361C32.337 0.0245361 32.1714 0.0580501 32.0173 0.1231C31.8632 0.18815 31.7237 0.283417 31.607 0.403279C31.3677 0.648962 31.2338 0.978355 31.2338 1.3213C31.2338 1.66425 31.3677 1.99364 31.607 2.23932L45.0208 15.9973L31.607 29.7579C31.4862 29.8816 31.391 30.0278 31.3267 30.1882C31.2625 30.3486 31.2305 30.5201 31.2325 30.6929C31.2346 30.8657 31.2706 31.0364 31.3387 31.1953C31.4067 31.3541 31.5053 31.498 31.629 31.6188C31.7467 31.7339 31.8861 31.8246 32.0389 31.8858C32.1918 31.947 32.3553 31.9774 32.5199 31.9754C32.6846 31.9733 32.8472 31.9388 32.9985 31.8739C33.1498 31.8089 33.2868 31.7147 33.4017 31.5967L47.6661 16.9579C47.9167 16.7009 48.0569 16.3562 48.0569 15.9973C48.0569 15.6383 47.9167 15.2936 47.6661 15.0366L33.4017 0.403279ZM22.391 0.403279C22.2743 0.283417 22.1347 0.18815 21.9806 0.1231C21.8265 0.0580501 21.6609 0.0245361 21.4936 0.0245361C21.3263 0.0245361 21.1607 0.0580501 21.0066 0.1231C20.8524 0.18815 20.7129 0.283417 20.5962 0.403279C20.3569 0.648962 20.223 0.978355 20.223 1.3213C20.223 1.66425 20.3569 1.99364 20.5962 2.23932L34.0101 15.9973L20.5962 29.7579C20.4755 29.8816 20.3802 30.0278 20.316 30.1882C20.2518 30.3486 20.2197 30.5201 20.2218 30.6929C20.2238 30.8657 20.2599 31.0364 20.3279 31.1953C20.3959 31.3541 20.4946 31.498 20.6182 31.6188C20.736 31.7339 20.8753 31.8246 21.0282 31.8858C21.1811 31.947 21.3445 31.9774 21.5092 31.9754C21.6738 31.9733 21.8364 31.9388 21.9878 31.8739C22.1391 31.8089 22.2761 31.7147 22.391 31.5967L36.6554 16.9579C36.9059 16.7009 37.0461 16.3562 37.0461 15.9973C37.0461 15.6383 36.9059 15.2936 36.6554 15.0366L22.391 0.403279Z" fill="#FF6A00"/>
  </g>
  <defs>
    <clipPath id="clip0_964_810">
      <rect width="48.086" height="32" fill="white" transform="matrix(-1 0 0 1 48.0859 0)"/>
    </clipPath>
  </defs>
</svg>